#!OML:ASF E:/inclinewalkrobotboard/Project1/Captureday1/Session1/subject1.ASF
:FULLY-SPECIFIED
:DEGREES
176
root 0 0 0 76.31705241772934 -27.403828902436103 -45.46048578868286
lowerback -11.188118672039607 7.863087150569326 9.569380043968177
upperback -20.51718309583238 10.074269819187299 2.9598161427708134
thorax -15.456439001000847 3.969932739153993 -1.7119882881138766
lowerneck -7.543290557912107 9.772330462642648 5.411055942731352
upperneck 11.708733089255315 11.68119641108342 7.288388074258702
head 4.804239458561918 6.267604962566785 2.0771186029008897
rclavicle 6.0817638861319804E-15 -3.4254439797904383E-15
rhumerus 108.77138062604958 -24.95173696251114 -115.15330667332401
rradius 0.8353935329661475
rwrist 69.61475981365086
rhand 13.702887402272086 -12.585591745847625
rfingers 7.125020000000017
rthumb 38.70031878566601 -38.4824243648145
lclavicle -6.527215677594269E-16 1.4991225507463109E-15
lhumerus -0.16462876098635348 24.917112629838773 1.685307437427113
lradius 9.312032615025853
lwrist -41.452589840795916
lhand 12.115925597385909 36.74951737466749
lfingers 7.125020000000047
lthumb 37.222360597632296 63.83755271828842
rfemur 183.1044962958855 -219.75129497623055 -192.07337523091144
rtibia 67.36753173803041
rfoot -22.873656717158024 -9.9003624950632
rtoes 49.86000215386832
lfemur -109.45260669565822 35.768834405089464 -24.132344401900188
ltibia 68.04985247079796
lfoot -38.31655616286943 35.582924130847616
ltoes 38.94619853307117
177
root 0 0 0 76.31604496659946 -27.40917313255865 -45.45884834534494
lowerback -11.187972917366437 7.863131681127262 9.568335030606006
upperback -20.516215440164927 10.074304708057607 2.958965412127089
thorax -15.455545620379926 3.9700123595331505 -1.7123612338784744
lowerneck -7.544810966133762 9.772186537540767 5.411266264993551
upperneck 11.709371176912974 11.680822771885557 7.288230219649801
head 4.804695459526704 6.267481583680298 2.0770992588310957
rclavicle 6.073417602710298E-15 -3.4224131800544627E-15
rhumerus 108.75239261783506 -24.946544495981072 -115.15143460903509
rradius 0.8223194981872837
rwrist 69.63115743173137
rhand 13.715500217496366 -12.593758458518009
rfingers 7.125020000000017
rthumb 38.712404235202825 -38.4886385507546
lclavicle -6.741322503569664E-16 1.5000729483273652E-15
lhumerus -0.12710782348266747 24.96375886350234 1.7100977971219606
lradius 9.289193487538476
lwrist -41.460519448847656
lhand 12.100722157445203 36.738074639549446
lfingers 7.125020000000047
lthumb 37.2079790691912 63.82970516832302
rfemur 183.09649925142045 -219.74213940811177 -192.06749364597226
rtibia 67.37024564711164
rfoot -22.85260288260463 -9.920376192260251
rtoes 49.87186732669455
lfemur -109.45356565022843 35.76544591267799 -24.139656780720454
ltibia 68.0866506881566
lfoot -38.323938067412605 35.5770313473931
ltoes 38.933492082077905
178
root 0 0 0 76.32056070490466 -27.385416230181853 -45.466280356321796
lowerback -11.188646329502642 7.862846388992496 9.572985805464771
upperback -20.51973108392597 10.074126898185254 2.9622445916120457
thorax -15.458487195793502 3.969632124758326 -1.7114151229282362
lowerneck -7.538915233955644 9.77176187360804 5.410276306205574
upperneck 11.710350169631553 11.680766853427368 7.288006734410711
head 4.80428734109313 6.267241263819407 2.076850195327588
rclavicle 6.140630925148068E-15 -3.3488382001264044E-15
rhumerus 108.81680122164141 -24.946386630600777 -115.1257986903016
rradius 0.8776998395243112
rwrist 69.58179526129332
rhand 13.68973029761883 -12.574779436843508
rfingers 7.125020000000017
rthumb 38.68721267922563 -38.47248644603746
lclavicle -5.712411111853226E-16 1.577752589462462E-15
lhumerus -0.4232369738259951 24.81187597816686 1.6979836297104285
lradius 9.363112783408198
lwrist -41.45289425439799
lhand 12.130035996447456 36.769176486696864
lfingers 7.125020000000047
lthumb 37.235636668896404 63.85256058320909
rfemur 183.1069623288633 -219.78170048896015 -192.08582023362584
rtibia 67.3310908475048
rfoot -23.04687267460065 -9.803297831544015
rtoes 49.80796541039908
lfemur -109.45649963285192 35.773910775175274 -24.12853283076009
ltibia 67.95257069499803
lfoot -38.29326917902719 35.60894735252258
ltoes 38.97319963586475
179
root 0 0 0 76.31807201819106 -27.39847908911205 -45.46210601927167
lowerback -11.188285987060272 7.863013746361219 9.57040001099658
upperback -20.51803510708162 10.07421263263863 2.9605793429224683
thorax -15.45716839243576 3.969841961065283 -1.711724700704873
lowerneck -7.541908989169887 9.77230629520314 5.410848433476252
upperneck 11.708759104084649 11.681299017147024 7.288365196159564
head 4.80406293553488 6.267602975223969 2.077073881748481
rclavicle 6.087094266385999E-15 -3.426209731119807E-15
rhumerus 108.81906767304153 -24.956931067581564 -115.15817260500828
rradius 0.856499828683635
rwrist 69.59870593136128
rhand 13.68661203938381 -12.576488679630165
rfingers 7.125020000000017
rthumb 38.68467385246834 -38.475828306421775
lclavicle -6.275481523042544E-16 1.5027745017762958E-15
lhumerus -0.2363301051872817 24.863157075847983 1.670836177309468
lradius 9.337772379259295
lwrist -41.44495246735846
lhand 12.127780997343368 36.76223982378674
lfingers 7.125020000000047
lthumb 37.23354263283751 63.84702494990826
rfemur 183.11571812854785 -219.7672901060921 -192.08392689745386
rtibia 67.35765058630857
rfoot -22.924507802341125 -9.859469528955035
rtoes 49.842413262111904
lfemur -109.44988646417738 35.77032424218462 -24.12308581594432
ltibia 67.9978003000457
lfoot -38.313894696584306 35.59223325703124
ltoes 38.96227880753357
180
root 0 0 0 76.31730852594406 -27.401898815478454 -45.46093554044502
lowerback -11.188059048226926 7.863087894766066 9.569634242404026
upperback -20.517527785418572 10.074269382778812 2.9600836200698275
thorax -15.456836552335279 3.969919108866809 -1.7118224161172488
lowerneck -7.542806675555699 9.772440791333157 5.410969188817554
upperneck 11.708112244755625 11.681438888002539 7.288487982830463
head 4.803931643260285 6.267696369970815 2.0771451981030165
rclavicle 6.0804947934411235E-15 -3.4281345953134372E-15
rhumerus 108.78566674157402 -24.956075219731243 -115.16360407275683
rradius 0.8358048114941852
rwrist 69.6170440709412
rhand 13.69633870656293 -12.582539471232819
rfingers 7.125020000000017
rthumb 38.694120007624655 -38.48061403486445
lclavicle -6.542478189099545E-16 1.4956128944381622E-15
lhumerus -0.15187125108887045 24.908927746976463 1.6745607101058582
lradius 9.316780945985574
lwrist -41.44916692041893
lhand 12.119878834978065 36.75242893330075
lfingers 7.125020000000047
lthumb 37.22610087135602 63.83962434760067
rfemur 183.10608490806777 -219.74971258066876 -192.07308463580085
rtibia 67.36867628930233
rfoot -22.86305478883632 -9.903528307240443
rtoes 49.8608357628532
lfemur -109.44664025235167 35.76843210608161 -24.127658741782717
ltibia 68.03531009481677
lfoot -38.32122072908888 35.58326109958192
ltoes 38.95020765400177
181
root 0 0 0 76.31619875199169 -27.407789815666725 -45.45915836353277
lowerback -11.187876737531901 7.863134673471841 9.56849834618871
upperback -20.516442106650082 10.074306228277688 2.9591381778811283
thorax -15.455839513121068 3.9700041336847463 -1.712253495898164
lowerneck -7.5444998278686555 9.772269405027194 5.411204127183068
upperneck 11.708879285628294 11.681004656779518 7.288296031875186
head 4.804462616545659 6.267550385066348 2.0771174570775734
rclavicle 6.0719556737058336E-15 -3.4245967365730497E-15
rhumerus 108.76627574867808 -24.95099467443353 -115.16040524456272
rradius 0.8226126819451238
rwrist 69.63377856261839
rhand 13.709609076190272 -12.591138469552911
rfingers 7.125020000000017
rthumb 38.70683308449186 -38.48715775120579
lclavicle -6.759674933648717E-16 1.4971252149906585E-15
lhumerus -0.11574857694915686 24.95910132450562 1.702633915336257
lradius 9.292169038479589
lwrist -41.45817178420194
lhand 12.102871256858815 36.73985625552622
lfingers 7.125020000000047
lthumb 37.21000680595187 63.83101014934604
rfemur 183.09822447290446 -219.74019593197636 -192.0666249276883
rtibia 67.37250295625445
rfoot -22.839416325778664 -9.924895953595412
rtoes 49.871850101017856
lfemur -109.44756432291115 35.76483247995215 -24.135725179118232
ltibia 68.07411571248414
lfoot -38.329268808868534 35.57725570694883
ltoes 38.936821909735094
182
root 0 0 0 76.31532056774226 -27.412705322699747 -45.457749402427
lowerback -11.187835865538545 7.863150746879596 9.567643948118281
upperback -20.515513842504603 10.074319405451837 2.958367469703532
thorax -15.454902239171666 3.970060422563086 -1.7126551071548546
lowerneck -7.545868202434663 9.772038560224498 5.4114121503911194
upperneck 11.710022069348781 11.680488807904975 7.288062033174855
head 4.805093994246797 6.26735998858167 2.0770639015047507
rclavicle 6.0702012968504354E-15 -3.420552258814997E-15
rhumerus 108.7423815831008 -24.94490589333668 -115.14774401052813
rradius 0.8153111354211937
rwrist 69.6410771242509
rhand 13.72256223115209 -12.598399751478334
rfingers 7.125020000000017
rthumb 38.719184888626565 -38.492211577721356
lclavicle -6.835706299210336E-16 1.5010338152986416E-15
lhumerus -0.11290058616458154 24.995628970186402 1.7304322585111152
lradius 9.273518301553018
lwrist -41.46742626648491
lhand 12.088474140317755 36.72943762463446
lfingers 7.125020000000047
lthumb 37.19637785178614 63.82377739947346
rfemur 183.0922717241763 -219.73691199352612 -192.06341892072504
rtibia 67.3738926419629
rfoot -22.83762059033645 -9.93334896602523
rtoes 49.876730767670026
lfemur -109.45571616420139 35.76349376673897 -24.14584642631906
ltibia 68.11027792071916
lfoot -38.32667455682307 35.57436286549519
ltoes 38.925479875238395
183
root 0 0 0 76.3200514892637 -27.388447448296592 -45.46547591685424
lowerback -11.188629283536226 7.862851609528338 9.572504404759485
upperback -20.5191462096883 10.07413220352897 2.9617739284777396
thorax -15.457884096568204 3.969661353745672 -1.7116865119499343
lowerneck -7.539757813275399 9.771597414632174 5.410408899477801
upperneck 11.711186836081627 11.680408525991702 7.287840622121999
head 4.804729093936961 6.267106197297784 2.0768083693971615
rclavicle 6.1405995061107695E-15 -3.345439705036107E-15
rhumerus 108.80297983099476 -24.94284782987331 -115.11634119692906
rradius 0.874924824241976
rwrist 69.5841163856143
rhand 13.69710199549559 -12.578722959612682
rfingers 7.125020000000017
rthumb 38.69422663353918 -38.47513411533865
lclavicle -5.729592408635283E-16 1.5817355211041987E-15
lhumerus -0.4318284604437146 24.83119917407196 1.716053191122434
lradius 9.352951034140176
lwrist -41.458858036979066
lhand 12.121471482443958 36.76317871657809
lfingers 7.125020000000047
lthumb 37.227523840164345 63.84839406410552
rfemur 183.10430678693234 -219.7815696903762 -192.08476456548505
rtibia 67.33173381730874
rfoot -23.051082004572223 -9.804806721720123
rtoes 49.80856390083163
lfemur -109.46288685581447 35.77360976252861 -24.13521871576897
ltibia 67.97402568561182
lfoot -38.289773667433195 35.60790592532038
ltoes 38.966781245894374
